<svg xmlns="http://www.w3.org/2000/svg" viewBox="0 0 100 100" role="img" aria-label="Heeij">
  <rect width="100" height="100" rx="24" fill="#163763"/>
  <path d="M37.19217739451801 56.55374191561441Q33.22543886664613 56.55374191561441 31.112719433323065 54.87218971358176Q29.0 53.19063751154912 29.0 50.086233446258085Q29.0 46.80936248845088 31.112719433323065 45.12781028641824Q33.22543886664613 43.44625808438559 37.19217739451801 43.44625808438559Q41.24514936864798 43.44625808438559 43.35786880197105 45.12781028641824Q45.470588235294116 46.80936248845088 45.470588235294116 50.0Q45.470588235294116 53.19063751154912 43.35786880197105 54.87218971358176Q41.24514936864798 56.55374191561441 37.19217739451801 56.55374191561441ZM62.721589159223896 56.55374191561441Q58.754850631352014 56.55374191561441 56.64213119802895 54.87218971358176Q54.529411764705884 53.19063751154912 54.529411764705884 50.086233446258085Q54.529411764705884 46.80936248845088 56.64213119802895 45.12781028641824Q58.754850631352014 43.44625808438559 62.721589159223896 43.44625808438559Q66.77456113335387 43.44625808438559 68.88728056667694 45.12781028641824Q71.0 46.80936248845088 71.0 50.0Q71.0 53.19063751154912 68.88728056667694 54.87218971358176Q66.77456113335387 56.55374191561441 62.721589159223896 56.55374191561441Z" fill="#FF6F5B"/>
</svg>
