<svg xmlns="http://www.w3.org/2000/svg" viewBox="-40 -794 2558 1042" role="img" aria-label="Heeij">
  <path d="M499 0V-660H660V0ZM69 0V-660H230V0ZM167 -268V-398H564V-268ZM1043 14Q977 14 925.0 -3.5Q873 -21 836.5 -55.0Q800 -89 781.0 -139.0Q762 -189 762 -254Q762 -317 780.5 -370.0Q799 -423 833.5 -461.5Q868 -500 918.5 -521.0Q969 -542 1032 -542Q1096 -542 1144.5 -521.5Q1193 -501 1224.5 -461.0Q1256 -421 1271.0 -363.5Q1286 -306 1281 -232L868 -229V-313L1189 -316L1132 -277Q1139 -327 1126.0 -358.5Q1113 -390 1088.0 -404.5Q1063 -419 1034 -419Q999 -419 972.5 -400.0Q946 -381 931.0 -345.0Q916 -309 916 -257Q916 -175 951.5 -138.0Q987 -101 1042 -101Q1069 -101 1087.0 -108.5Q1105 -116 1116.5 -127.5Q1128 -139 1134.5 -153.0Q1141 -167 1145 -180L1285 -150Q1277 -113 1259.5 -83.0Q1242 -53 1212.5 -31.0Q1183 -9 1141.5 2.5Q1100 14 1043 14ZM1630 14Q1564 14 1512.0 -3.5Q1460 -21 1423.5 -55.0Q1387 -89 1368.0 -139.0Q1349 -189 1349 -254Q1349 -317 1367.5 -370.0Q1386 -423 1420.5 -461.5Q1455 -500 1505.5 -521.0Q1556 -542 1619 -542Q1683 -542 1731.5 -521.5Q1780 -501 1811.5 -461.0Q1843 -421 1858.0 -363.5Q1873 -306 1868 -232L1455 -229V-313L1776 -316L1719 -277Q1726 -327 1713.0 -358.5Q1700 -390 1675.0 -404.5Q1650 -419 1621 -419Q1586 -419 1559.5 -400.0Q1533 -381 1518.0 -345.0Q1503 -309 1503 -257Q1503 -175 1538.5 -138.0Q1574 -101 1629 -101Q1656 -101 1674.0 -108.5Q1692 -116 1703.5 -127.5Q1715 -139 1721.5 -153.0Q1728 -167 1732 -180L1872 -150Q1864 -113 1846.5 -83.0Q1829 -53 1799.5 -31.0Q1770 -9 1728.5 2.5Q1687 14 1630 14ZM1966 0V-528H2127V0ZM2211 208Q2206 208 2203.0 208.0Q2200 208 2196 208L2183 71Q2222 66 2238.0 51.0Q2254 36 2254 -3V-528H2416V6Q2416 60 2402.5 98.5Q2389 137 2363.0 161.0Q2337 185 2298.5 196.5Q2260 208 2211 208Z" fill="#163763"/>
  <path d="M2047 -602Q2001 -602 1976.5 -621.5Q1952 -641 1952 -677Q1952 -715 1976.5 -734.5Q2001 -754 2047 -754Q2094 -754 2118.5 -734.5Q2143 -715 2143 -678Q2143 -641 2118.5 -621.5Q2094 -602 2047 -602ZM2335 -602Q2289 -602 2264.5 -621.5Q2240 -641 2240 -677Q2240 -715 2264.5 -734.5Q2289 -754 2335 -754Q2382 -754 2406.5 -734.5Q2431 -715 2431 -678Q2431 -641 2406.5 -621.5Q2382 -602 2335 -602Z" fill="#FF6F5B"/>
</svg>
